<?xml version="1.0" encoding="UTF-8"?>
<svg width="16px" height="16px" viewBox="0 0 16 16" version="1.1" xmlns="http://www.w3.org/2000/svg" xmlns:xlink="http://www.w3.org/1999/xlink">
    <!-- Generator: Sketch 52 (66869) - http://www.bohemiancoding.com/sketch -->
    <title>业务统计</title>
    <desc>Created with Sketch.</desc>
    <g id="Page-1" stroke="none" stroke-width="1" fill="none" fill-rule="evenodd">
        <g id="Artboard" transform="translate(-172.000000, -58.000000)">
            <g id="数据" transform="translate(172.000000, 58.000000)">
                <rect id="Rectangle" fill="#000000" opacity="0" x="0" y="0" width="16" height="16"></rect>
                <path d="M15,2.75 L15,11.25 C15,11.3880712 14.8880712,11.5 14.75,11.5 L8.625,11.5 C8.55596441,11.5 8.5,11.5559644 8.5,11.625 L8.5,12.375 C8.5,12.4440356 8.55596441,12.5 8.625,12.5 L12.43,12.5 C12.4761018,12.500092 12.5161662,12.5316892 12.527,12.5765 L12.72025,13.3765 C12.727467,13.4063501 12.7205682,13.437861 12.7015388,13.4619649 C12.6825095,13.4860688 12.65346,13.5000923 12.62275,13.5 L3.3785,13.5 C3.34765348,13.5000147 3.31852651,13.4857928 3.29956829,13.4614598 C3.28061007,13.4371269 3.2739426,13.4054064 3.2815,13.3755 L3.48275,12.5755 C3.4939734,12.5310863 3.53394018,12.4999782 3.57975,12.5 L7.375,12.5 C7.44403559,12.5 7.5,12.4440356 7.5,12.375 L7.5,11.625 C7.5,11.5559644 7.44403559,11.5 7.375,11.5 L1.25,11.5 C1.11192881,11.5 1,11.3880712 1,11.25 L1,2.75 C1,2.61192881 1.11192881,2.5 1.25,2.5 L14.75,2.5 C14.8880712,2.5 15,2.61192881 15,2.75 Z M14,3.5 L2,3.5 L2,10.5 L14,10.5 L14,3.5 Z M4.25,7 L5.75,7 C5.91666667,7 6,7.08333333 6,7.25 L6,8.75 C6,8.91666667 5.91666667,9 5.75,9 L4.25,9 C4.08333333,9 4,8.91666667 4,8.75 L4,7.25 C4,7.08333333 4.08333333,7 4.25,7 Z M7.25,6 L8.75,6 C8.91666667,6 9,6.08333333 9,6.25 L9,8.75 C9,8.91666667 8.91666667,9 8.75,9 L7.25,9 C7.08333333,9 7,8.91666667 7,8.75 L7,6.25 C7,6.08333333 7.08333333,6 7.25,6 Z M10.25,5 L11.75,5 C11.9166667,5 12,5.08333333 12,5.25 L12,8.75 C12,8.91666667 11.9166667,9 11.75,9 L10.25,9 C10.0833333,9 10,8.91666667 10,8.75 L10,5.25 C10,5.08333333 10.0833333,5 10.25,5 Z" id="Shape" fill="#BEBEBF" fill-rule="nonzero"></path>
            </g>
        </g>
    </g>
</svg>