<?xml version="1.0" encoding="UTF-8"?>
<svg width="16px" height="16px" viewBox="0 0 16 16" version="1.1" xmlns="http://www.w3.org/2000/svg" xmlns:xlink="http://www.w3.org/1999/xlink">
    <!-- Generator: Sketch 52 (66869) - http://www.bohemiancoding.com/sketch -->
    <title>企业用户</title>
    <desc>Created with Sketch.</desc>
    <g id="Page-1" stroke="none" stroke-width="1" fill="none" fill-rule="evenodd">
        <g id="Artboard" transform="translate(-104.000000, -58.000000)">
            <g id="群组" transform="translate(104.000000, 58.000000)">
                <rect id="Rectangle" fill="#000000" opacity="0" x="0" y="0" width="16" height="16"></rect>
                <path d="M9.49825,10 C11.75575,10 13.6025,11.76025 13.74,13.98325 L13.74425,14.064 C13.7462931,14.1125834 13.7284273,14.1598975 13.6947825,14.1950051 C13.6611377,14.2301128 13.6146263,14.2499748 13.566,14.25 L12.918,14.25 C12.8348162,14.2500025 12.7632653,14.1911275 12.74725,14.1095 L12.74425,14.08475 C12.65825,12.3665 11.2375,11 9.49825,11 C7.7695,11 6.356,12.34975 6.25425,14.05275 L6.2505,14.1305 C6.24807714,14.1972198 6.19326376,14.250044 6.1265,14.25 L5.347,14.25 C5.29315224,14.25 5.2495,14.2063478 5.2495,14.1525 L5.2495,14.15 C5.3025,11.849 7.1845,10 9.49825,10 Z M6.19825,7.916 C6.25575,8.07375 6.305,8.195 6.34625,8.2795 C6.382,8.35325 6.43975,8.455 6.5195,8.58475 L6.555,8.64225 C6.56727974,8.66199575 6.56903325,8.68652665 6.55968693,8.70781826 C6.55034061,8.72910988 6.53109664,8.74442357 6.50825,8.74875 L6.495,8.75 C6.476,8.75 6.4575,8.75 6.43875,8.7505 C4.77,8.77875 3.40775,10.0645 3.2585,11.701 L3.25225,11.779 C3.24383165,11.9034124 3.14044688,12.0000214 3.01575,12 L2.45,12 C2.33954305,12 2.25,11.9104569 2.25,11.8 L2.25,11.7905 C2.34975,9.74275 3.8985,8.0755 5.89275,7.79225 L5.9785,7.781 C6.07430452,7.76936318 6.16548425,7.82531438 6.1985,7.916 L6.19825,7.916 Z M9.49825,4 C11.017,4 12.24825,5.23125 12.24825,6.75 C12.24825,8.26875 11.017,9.5 9.49825,9.5 C7.9795,9.5 6.74825,8.26875 6.74825,6.75 C6.74825,5.23125 7.9795,4 9.49825,4 Z M9.49825,5 C8.53175169,5 7.74825,5.78350169 7.74825,6.75 C7.74825,7.71649831 8.53175169,8.5 9.49825,8.5 C10.4647483,8.5 11.24825,7.71649831 11.24825,6.75 C11.24825,5.78350169 10.4647483,5 9.49825,5 Z M6.49525,1.75 C7.51525,1.75 8.40525,2.30525 8.88025,3.13 L8.91775,3.1975 C8.92929914,3.21903551 8.93001468,3.2447567 8.91968068,3.26690099 C8.90934668,3.28904527 8.88917374,3.3050185 8.86525,3.31 C8.66875,3.35025 8.53275,3.38175 8.45775,3.405 C8.39275,3.425 8.28875,3.4645 8.14625,3.5235 L8.091,3.5465 C8.04139887,3.56730281 7.98413618,3.55592939 7.94625,3.51775 L7.9315,3.50025 C7.50180034,2.88373623 6.72646496,2.61038948 6.00512469,2.82110076 C5.28378442,3.03181205 4.77750285,3.67953296 4.74723251,4.43040894 C4.71696216,5.18128492 5.16946192,5.86765753 5.8715,6.13575 L5.932,6.1575 C5.99744102,6.17947678 6.03610485,6.24692368 6.022,6.3145 C5.9922543,6.55359429 5.98714416,6.7951115 6.00675,7.03525 L6.008,7.05125 L6.0095,7.06875 C6.01501485,7.1263712 5.97285683,7.17758704 5.91525,7.18325 L5.8985,7.18325 L5.882,7.181 C4.65825,6.90275 3.74525,5.808 3.74525,4.5 C3.74525,2.98125 4.9765,1.75 6.49525,1.75 Z" id="Shape" fill="#BEBEBF" fill-rule="nonzero"></path>
            </g>
        </g>
    </g>
</svg>