<?xml version="1.0" encoding="UTF-8"?>
<svg width="16px" height="16px" viewBox="0 0 16 16" version="1.1" xmlns="http://www.w3.org/2000/svg" xmlns:xlink="http://www.w3.org/1999/xlink">
    <!-- Generator: Sketch 52 (66869) - http://www.bohemiancoding.com/sketch -->
    <title>扶뒬못</title>
    <desc>Created with Sketch.</desc>
    <g id="Page-1" stroke="none" stroke-width="1" fill="none" fill-rule="evenodd">
        <g id="Artboard" transform="translate(-205.000000, -58.000000)">
            <g id="扶뒬못" transform="translate(205.000000, 58.000000)">
                <rect id="Rectangle" fill="#000000" opacity="0" x="0" y="0" width="16" height="16"></rect>
                <path d="M4.125,8.25 C4.19403559,8.25 4.25,8.30596441 4.25,8.375 L4.25,13.75 L6,13.75 L6,10 C6,9.86192881 6.11192881,9.75 6.25,9.75 L9.75,9.75 C9.88807119,9.75 10,9.86192881 10,10 L10,13.75 L12,13.75 L12,8.375 C12,8.30596441 12.0559644,8.25 12.125,8.25 L12.875,8.25 C12.9440356,8.25 13,8.30596441 13,8.375 L13,14.5 C13,14.6380712 12.8880712,14.75 12.75,14.75 L3.5,14.75 C3.36192881,14.75 3.25,14.6380712 3.25,14.5 L3.25,8.375 C3.25,8.30596441 3.30596441,8.25 3.375,8.25 L4.125,8.25 Z M9,10.75 L7,10.75 L7,13.75 L9,13.75 L9,10.75 Z M8.17,1.97575 L14.69375,8.03325 C14.7315225,8.06819977 14.7440158,8.12272707 14.725228,8.17063599 C14.7064402,8.21854491 14.6602111,8.25004379 14.60875,8.25 L13.55575,8.25 C13.4926931,8.24998558 13.4319707,8.22614312 13.38575,8.18325 L8.08475,3.26075 C8.03674049,3.21635579 7.96262873,3.21646478 7.91475,3.261 L2.614,8.18325 C2.56777928,8.22614312 2.50705692,8.24998558 2.444,8.25 L1.3915,8.25 C1.33999323,8.25014705 1.29366961,8.21868551 1.27481714,8.17075271 C1.25596468,8.12281992 1.26844367,8.06823071 1.30625,8.03325 L7.83,1.97575 C7.92588829,1.8868207 8.07411171,1.8868207 8.17,1.97575 Z" id="Shape" fill="#BEBEBF" fill-rule="nonzero"></path>
            </g>
        </g>
    </g>
</svg>