<?xml version="1.0" encoding="UTF-8"?>
<svg width="16px" height="16px" viewBox="0 0 16 16" version="1.1" xmlns="http://www.w3.org/2000/svg" xmlns:xlink="http://www.w3.org/1999/xlink">
    <!-- Generator: Sketch 52 (66869) - http://www.bohemiancoding.com/sketch -->
    <title>Rectangle</title>
    <desc>Created with Sketch.</desc>
    <g id="Page-1" stroke="none" stroke-width="1" fill="none" fill-rule="evenodd">
        <g id="Artboard" transform="translate(-239.000000, -58.000000)">
            <g id="Group" transform="translate(239.000000, 58.000000)">
                <rect id="Rectangle" fill="#000000" opacity="0" x="0" y="0" width="16" height="16"></rect>
                <path d="M13.25,1 C13.3880712,1 13.5,1.11192881 13.5,1.25 L13.5,10.8965 C13.5000522,10.9627628 13.4737957,11.0263359 13.427,11.07325 L9.57825,14.92675 C9.53137682,14.9736373 9.4677987,14.9999858 9.4015,15 L2.75,15 C2.61192881,15 2.5,14.8880712 2.5,14.75 L2.5,1.25 C2.5,1.11192881 2.61192881,1 2.75,1 L13.25,1 Z M12.5,2 L3.5,2 L3.5,14 L8.5,14 L8.5,10.25 C8.5,10.1119288 8.61192881,10 8.75,10 L12.5,10 L12.5,2 Z M11.966,11 L9.625,11 C9.55596441,11 9.5,11.0559644 9.5,11.125 L9.5,13.46925 C9.49998381,13.4895177 9.51220441,13.5077902 9.5309421,13.5155154 C9.5496798,13.5232406 9.57122746,13.5188901 9.5855,13.5045 L12.00125,11.08525 C12.0154615,11.070954 12.0196985,11.0495222 12.0119959,11.0308939 C12.0042933,11.0122656 11.9861578,11.0000846 11.966,11 Z M4.8205,3.5 L11.1795,3.5 C11.291,3.5 11.33125,3.5115 11.372,3.5335 C11.41275,3.55525 11.44475,3.58725 11.4665,3.628 C11.4885,3.66875 11.5,3.709 11.5,3.8205 L11.5,4.1795 C11.5,4.291 11.4885,4.33125 11.4665,4.372 C11.4451838,4.41225975 11.4122597,4.44518378 11.372,4.4665 C11.33125,4.4885 11.291,4.5 11.1795,4.5 L4.8205,4.5 C4.709,4.5 4.66875,4.4885 4.628,4.4665 C4.58774025,4.44518378 4.55481622,4.41225975 4.5335,4.372 C4.5115,4.33125 4.5,4.291 4.5,4.1795 L4.5,3.8205 C4.5,3.709 4.5115,3.66875 4.5335,3.628 C4.55481622,3.58774025 4.58774025,3.55481622 4.628,3.5335 C4.66875,3.5115 4.709,3.5 4.8205,3.5 Z M4.8205,5.5 L11.1795,5.5 C11.291,5.5 11.33125,5.5115 11.372,5.5335 C11.41275,5.55525 11.44475,5.58725 11.4665,5.628 C11.4885,5.66875 11.5,5.709 11.5,5.8205 L11.5,6.1795 C11.5,6.291 11.4885,6.33125 11.4665,6.372 C11.4451838,6.41225975 11.4122597,6.44518378 11.372,6.4665 C11.33125,6.4885 11.291,6.5 11.1795,6.5 L4.8205,6.5 C4.709,6.5 4.66875,6.4885 4.628,6.4665 C4.58774025,6.44518378 4.55481622,6.41225975 4.5335,6.372 C4.5115,6.33125 4.5,6.291 4.5,6.1795 L4.5,5.8205 C4.5,5.709 4.5115,5.66875 4.5335,5.628 C4.55481622,5.58774025 4.58774025,5.55481622 4.628,5.5335 C4.66875,5.5115 4.709,5.5 4.8205,5.5 Z M4.8205,7.5 L7.6795,7.5 C7.791,7.5 7.83125,7.5115 7.872,7.5335 C7.91275,7.55525 7.94475,7.58725 7.9665,7.628 C7.9885,7.66875 8,7.709 8,7.8205 L8,8.1795 C8,8.291 7.9885,8.33125 7.9665,8.372 C7.94518378,8.41225975 7.91225975,8.44518378 7.872,8.4665 C7.83125,8.4885 7.791,8.5 7.6795,8.5 L4.8205,8.5 C4.709,8.5 4.66875,8.4885 4.628,8.4665 C4.58774025,8.44518378 4.55481622,8.41225975 4.5335,8.372 C4.5115,8.33125 4.5,8.291 4.5,8.1795 L4.5,7.8205 C4.5,7.709 4.5115,7.66875 4.5335,7.628 C4.55481622,7.58774025 4.58774025,7.55481622 4.628,7.5335 C4.66875,7.5115 4.709,7.5 4.8205,7.5 Z" id="Shape" fill="#BEBEBF" fill-rule="nonzero"></path>
            </g>
        </g>
    </g>
</svg>