<?xml version="1.0" encoding="UTF-8"?>
<svg width="16px" height="16px" viewBox="0 0 16 16" version="1.1" xmlns="http://www.w3.org/2000/svg" xmlns:xlink="http://www.w3.org/1999/xlink">
    <!-- Generator: Sketch 52 (66869) - http://www.bohemiancoding.com/sketch -->
    <title>产品管理</title>
    <desc>Created with Sketch.</desc>
    <g id="Page-1" stroke="none" stroke-width="1" fill="none" fill-rule="evenodd">
        <g id="Artboard" transform="translate(-71.000000, -58.000000)">
            <g id="数据1" transform="translate(71.000000, 58.000000)">
                <rect id="Rectangle" fill="#000000" opacity="0" x="0" y="0" width="16" height="16"></rect>
                <path d="M14,8.5 C14.1380712,8.5 14.25,8.61192881 14.25,8.75 L14.25,14 C14.25,14.1380712 14.1380712,14.25 14,14.25 L2,14.25 C1.86192881,14.25 1.75,14.1380712 1.75,14 L1.75,8.75 C1.75,8.61192881 1.86192881,8.5 2,8.5 L14,8.5 Z M13.25,9.5 L2.75,9.5 L2.75,13.25 L13.25,13.25 L13.25,9.5 Z M4.625,10.5 C5.10824916,10.5 5.5,10.8917508 5.5,11.375 C5.5,11.8582492 5.10824916,12.25 4.625,12.25 C4.14175084,12.25 3.75,11.8582492 3.75,11.375 C3.75,10.8917508 4.14175084,10.5 4.625,10.5 Z M14,1.75 C14.1380712,1.75 14.25,1.86192881 14.25,2 L14.25,7.25 C14.25,7.38807119 14.1380712,7.5 14,7.5 L2,7.5 C1.86192881,7.5 1.75,7.38807119 1.75,7.25 L1.75,2 C1.75,1.86192881 1.86192881,1.75 2,1.75 L14,1.75 Z M13.25,2.75 L2.75,2.75 L2.75,6.5 L13.25,6.5 L13.25,2.75 Z M4.625,3.75 C5.10824916,3.75 5.5,4.14175084 5.5,4.625 C5.5,5.10824916 5.10824916,5.5 4.625,5.5 C4.14175084,5.5 3.75,5.10824916 3.75,4.625 C3.75,4.14175084 4.14175084,3.75 4.625,3.75 Z" id="Shape" fill="#BEBEBF" fill-rule="nonzero"></path>
            </g>
        </g>
    </g>
</svg>