<?xml version="1.0" encoding="UTF-8"?>
<svg width="16px" height="16px" viewBox="0 0 16 16" version="1.1" xmlns="http://www.w3.org/2000/svg" xmlns:xlink="http://www.w3.org/1999/xlink">
    <!-- Generator: Sketch 52 (66869) - http://www.bohemiancoding.com/sketch -->
    <title>服务管理</title>
    <desc>Created with Sketch.</desc>
    <g id="Page-1" stroke="none" stroke-width="1" fill="none" fill-rule="evenodd">
        <g id="Artboard" transform="translate(-138.000000, -58.000000)">
            <g id="设置" transform="translate(138.000000, 58.000000)">
                <rect id="Rectangle" fill="#000000" opacity="0" x="0" y="0" width="16" height="16"></rect>
                <path d="M14,1.756 C14.1380712,1.756 14.25,1.86792881 14.25,2.006 L14.25,14.006 C14.25,14.1440712 14.1380712,14.256 14,14.256 L2,14.256 C1.86192881,14.256 1.75,14.1440712 1.75,14.006 L1.75,2.006 C1.75,1.86792881 1.86192881,1.756 2,1.756 L14,1.756 Z M13.25,2.756 L2.75,2.756 L2.75,13.256 L13.25,13.256 L13.25,2.756 Z M6.5,9.25 C6.99713755,9.24992349 7.44708534,9.54439193 7.646,10 L11.625,10 C11.6940356,10 11.75,10.0559644 11.75,10.125 L11.75,10.875 C11.75,10.9440356 11.6940356,11 11.625,11 L7.646,11 C7.44721878,11.4557806 6.99724235,11.750441 6.5,11.750441 C6.00275765,11.750441 5.55278122,11.4557806 5.354,11 L4.375,11 C4.30596441,11 4.25,10.9440356 4.25,10.875 L4.25,10.125 C4.25,10.0559644 4.30596441,10 4.375,10 L5.354,10 C5.55291466,9.54439193 6.00286245,9.24992349 6.5,9.25 Z M6.5,10 C6.22385763,10 6,10.2238576 6,10.5 C6,10.7761424 6.22385763,11 6.5,11 C6.77614237,11 7,10.7761424 7,10.5 C7,10.2238576 6.77614237,10 6.5,10 Z M9.5,6.75 C9.99713755,6.74992349 10.4470853,7.04439193 10.646,7.5 L11.625,7.5 C11.6940356,7.5 11.75,7.55596441 11.75,7.625 L11.75,8.375 C11.75,8.44403559 11.6940356,8.5 11.625,8.5 L10.646,8.5 C10.4472188,8.95578063 9.99724235,9.25044097 9.5,9.25044097 C9.00275765,9.25044097 8.55278122,8.95578063 8.354,8.5 L4.375,8.5 C4.30596441,8.5 4.25,8.44403559 4.25,8.375 L4.25,7.625 C4.25,7.55596441 4.30596441,7.5 4.375,7.5 L8.354,7.5 C8.55291466,7.04439193 9.00286245,6.74992349 9.5,6.75 Z M9.5,7.5 C9.22385763,7.5 9,7.72385763 9,8 C9,8.27614237 9.22385763,8.5 9.5,8.5 C9.77614237,8.5 10,8.27614237 10,8 C10,7.72385763 9.77614237,7.5 9.5,7.5 Z M6.5,4.25 C6.99713755,4.24992349 7.44708534,4.54439193 7.646,5 L11.625,5 C11.6940356,5 11.75,5.05596441 11.75,5.125 L11.75,5.875 C11.75,5.94403559 11.6940356,6 11.625,6 L7.646,6 C7.44721878,6.45578063 6.99724235,6.75044097 6.5,6.75044097 C6.00275765,6.75044097 5.55278122,6.45578063 5.354,6 L4.375,6 C4.30596441,6 4.25,5.94403559 4.25,5.875 L4.25,5.125 C4.25,5.05596441 4.30596441,5 4.375,5 L5.354,5 C5.55291466,4.54439193 6.00286245,4.24992349 6.5,4.25 Z M6.5,5 C6.22385763,5 6,5.22385763 6,5.5 C6,5.77614237 6.22385763,6 6.5,6 C6.77614237,6 7,5.77614237 7,5.5 C7,5.22385763 6.77614237,5 6.5,5 Z" id="Shape" fill="#BEBEBF" fill-rule="nonzero"></path>
            </g>
        </g>
    </g>
</svg>