<?xml version="1.0" encoding="UTF-8"?>
<svg width="16px" height="16px" viewBox="0 0 16 16" version="1.1" xmlns="http://www.w3.org/2000/svg" xmlns:xlink="http://www.w3.org/1999/xlink">
    <!-- Generator: Sketch 52 (66869) - http://www.bohemiancoding.com/sketch -->
    <title>设置</title>
    <desc>Created with Sketch.</desc>
    <g id="Page-1" stroke="none" stroke-width="1" fill="none" fill-rule="evenodd">
        <g id="Artboard" transform="translate(-37.000000, -58.000000)">
            <g id="系统设置" transform="translate(37.000000, 58.000000)">
                <rect id="Rectangle" fill="#000000" opacity="0" x="0" y="0" width="16" height="16"></rect>
                <path d="M9.2615,3.15 L8.843,3.875 C8.79834294,3.9523483 8.71581413,3.99999773 8.6265,4 L2,4 L2,10.5 L12.5,10.5 L12.5,8.57 C12.5,8.45954305 12.5895431,8.37 12.7,8.37 L13.3,8.37 C13.4104569,8.37 13.5,8.45954305 13.5,8.57 L13.5,11.25 C13.5,11.3880712 13.3880712,11.5 13.25,11.5 L7.85,11.5 C7.79477153,11.5 7.75,11.5447715 7.75,11.6 L7.75,12.4 C7.75,12.455 7.795,12.5 7.85,12.5 L10.6605,12.5 C10.7182573,12.5000137 10.7684848,12.5395962 10.782,12.59575 L10.96275,13.34575 C10.9717108,13.3829807 10.9631117,13.4222647 10.9394163,13.4523471 C10.9157209,13.4824295 10.8795439,13.4999909 10.84125,13.5 L3.66,13.5 C3.62158238,13.4999703 3.58531225,13.4822764 3.56164172,13.4520172 C3.5379712,13.4217579 3.52952976,13.3822948 3.53875,13.345 L3.7245,12.595 C3.7382866,12.5392347 3.78830579,12.5000444 3.84575,12.5 L6.65,12.5 C6.70522847,12.5 6.75,12.4552285 6.75,12.4 L6.75,11.6 C6.75,11.5447715 6.70522847,11.5 6.65,11.5 L1.25,11.5 C1.11192881,11.5 1,11.3880712 1,11.25 L1,3.25 C1,3.11192881 1.11192881,3 1.25,3 L9.175,3 C9.21070824,3.0000366 9.24368739,3.01911096 9.26152566,3.05004437 C9.27936393,3.08097778 9.27935415,3.11907575 9.2615,3.15 Z M13.44475,2.6495 L14.8005,4.9975 C14.8451582,5.07485027 14.8451582,5.17014973 14.8005,5.2475 L13.44475,7.59575 C13.4000929,7.6730983 13.3175641,7.72074773 13.22825,7.72075 L10.517,7.72075 C10.4276859,7.72074773 10.3451571,7.6730983 10.3005,7.59575 L8.94475,5.2475 C8.9000918,5.17014973 8.9000918,5.07485027 8.94475,4.9975 L10.3005,2.6495 C10.3451571,2.5721517 10.4276859,2.52450227 10.517,2.5245 L13.22825,2.5245 C13.3175641,2.52450227 13.4000929,2.5721517 13.44475,2.6495 Z M12.795,3.5245 L10.95,3.5245 L10.02725,5.1225 L10.94975,6.72075 L12.795,6.72075 L13.71775,5.12275 L12.795,3.5245 Z M11.8725,4.6225 C12.1486424,4.6225 12.3725,4.84635763 12.3725,5.1225 C12.3725,5.39864237 12.1486424,5.6225 11.8725,5.6225 C11.5963576,5.6225 11.3725,5.39864237 11.3725,5.1225 C11.3725,4.84635763 11.5963576,4.6225 11.8725,4.6225 Z" id="Shape" fill="#BEBEBF" fill-rule="nonzero"></path>
            </g>
        </g>
    </g>
</svg>